<svg id="Livello_1" data-name="Livello 1" xmlns="http://www.w3.org/2000/svg" viewBox="0 0 398.13 397"><defs><style>.cls-1{fill:#eb3e4a;}</style></defs><path class="cls-1" d="M243.73,374a182,182,0,0,1-42.23,2.81l-1,20c3.39.17,6.84.26,10.24.26a200.64,200.64,0,0,0,36.68-3.38Zm-106-12.51-8.19,18.25a197.09,197.09,0,0,0,44.94,14L178.12,374A177.32,177.32,0,0,1,137.74,361.45Zm167.09-11.24a178.2,178.2,0,0,1-38.31,17.9l6.24,19a197.75,197.75,0,0,0,42.63-19.92Zm-221-26.16L69.62,338.12a199.46,199.46,0,0,0,36.8,29.3l10.52-17A179.28,179.28,0,0,1,83.84,324.05ZM353.26,306A180.17,180.17,0,0,1,324,336.49l12.69,15.45A199.28,199.28,0,0,0,369.22,318ZM47,269.79l-18.33,8a198.14,198.14,0,0,0,23.79,40.57l15.93-12.08A178.84,178.84,0,0,1,47,269.79Zm335.47-22.54a177.42,177.42,0,0,1-16.31,39l17.41,9.85a197.45,197.45,0,0,0,18.14-43.44ZM32.37,205.88l-20,.81a198.23,198.23,0,0,0,7.45,46.45l19.23-5.49A178.79,178.79,0,0,1,32.37,205.88Zm376-25.79-19.92,1.83c.5,5.47.76,11.05.76,16.58a180.81,180.81,0,0,1-1.84,25.73l19.79,2.86a200.35,200.35,0,0,0,2.05-28.59C409.22,192.35,408.93,186.16,408.38,180.09ZM22.76,134.52a198.26,198.26,0,0,0-9.74,46l19.92,1.78A178.31,178.31,0,0,1,41.69,141Zm365.65-24.59-17.89,8.94a177.37,177.37,0,0,1,14.24,39.81l19.5-4.44A197.34,197.34,0,0,0,388.41,109.93Zm-44-58.14L331,66.57a179.24,179.24,0,0,1,27.69,32L375.2,87.35A199.41,199.41,0,0,0,344.43,51.79Zm-62-38.44L275.2,32a178.08,178.08,0,0,1,37.35,19.88L324,35.46A198.13,198.13,0,0,0,282.43,13.35ZM184.14,1.77a197.82,197.82,0,0,0-45.57,11.75l7.28,18.63a177.61,177.61,0,0,1,40.94-10.56ZM210.66,0h-.43l.06,20h.43a179.4,179.4,0,0,1,42,5l4.68-19.44A199.37,199.37,0,0,0,210.66,0Z" transform="translate(-11.09)"/><path class="cls-1" d="M210.72,68.9a129.22,129.22,0,0,0-91.08,37.4c4.79,20.89-20.38,28.22-21.65,28.22a129.61,129.61,0,1,0,242.33,64h0A129.53,129.53,0,0,0,210.86,68.9Zm74.89,122.39a207.89,207.89,0,0,0-6.83-49h32.77a113.58,113.58,0,0,1,14.38,49Zm39.94,14.42a114.32,114.32,0,0,1-14.39,49H278.4a205.32,205.32,0,0,0,6.82-49ZM273.72,128c-5.41-14.39-12.24-27-20.53-36.38,19,7.51,35.64,20.48,48.22,36.38Zm-55.79,63.34v-49h45.35a201.92,201.92,0,0,1,7.9,49Zm53.29,14.37c-.73,17.65-3.22,34.19-7.9,49H217.93v-49ZM217.93,128V84c16.19,4,30.62,20.54,40.29,44Zm0,141.1h40.29c-9.71,23.41-24.14,40-40.33,43.93v-44Zm35.65,36.38c8.28-9.71,15.11-22,20.52-36.38h28.12c-13,15.8-29.58,28.77-48.64,36.33Zm-95.42-50.76a201.92,201.92,0,0,1-7.9-49h53.29v49Zm45.35,14.38V313c-16.19-4-30.62-20.52-40.33-43.93Zm-53.29-77.81c.73-17.65,3.22-34.19,7.9-49h45.35v49ZM147.72,128H119.64a114.68,114.68,0,0,1,48.22-36.38A120.69,120.69,0,0,0,147.72,128ZM143,142.38a205.32,205.32,0,0,0-6.82,49H95.89a114.32,114.32,0,0,1,14.39-49Zm-7.21,63.38a207.89,207.89,0,0,0,6.83,49H109.94a113.73,113.73,0,0,1-14.39-49Zm11.89,63.34c5.41,14.39,12.24,27,20.53,36.38A115.19,115.19,0,0,1,120,269.1ZM203.51,128H163.22c9.71-23.41,24.14-40,40.33-43.93Z" transform="translate(-11.09)"/><path class="cls-1" d="M105,20.9a14.17,14.17,0,0,1,18.74,21.25L106.55,57.4a12.77,12.77,0,0,0-2.46,2.52,5.89,5.89,0,0,0-.77,2.11,12.6,12.6,0,0,0,.26,3.52L109.9,109a12.52,12.52,0,0,1,.26,3.61,5.69,5.69,0,0,1-.81,2.14,12.38,12.38,0,0,1-2.58,2.53l-2.29,1.94c-3.73,3.16-5.59,4.74-7.39,4.91a5.7,5.7,0,0,1-4.29-1.39c-1.35-1.19-1.93-3.57-3.09-8.32L81.1,79.13,60.5,96.59a12.18,12.18,0,0,0-2.28,2.2,6.1,6.1,0,0,0-.83,1.86,12.46,12.46,0,0,0-.11,3.17l.27,9.49a12,12,0,0,1-.12,3.16,5.47,5.47,0,0,1-.83,1.86,12.18,12.18,0,0,1-2.28,2.2l-1.21,1c-2.91,2.47-4.37,3.71-5.9,4a5.64,5.64,0,0,1-3.89-.71c-1.33-.79-2.26-2.46-4.11-5.8L31.4,104.9a12.31,12.31,0,0,0-.7-1.16,4.82,4.82,0,0,0-.58-.69c-.24-.24-.51-.45-1-.88l-12.65-10c-3-2.37-4.49-3.56-5-5a5.71,5.71,0,0,1-.06-4c.51-1.46,2-2.7,4.88-5.17l1.22-1a12.29,12.29,0,0,1,2.54-1.88,5.8,5.8,0,0,1,2-.52,12.3,12.3,0,0,1,3.14.41l9.32,1.82a12.29,12.29,0,0,0,3.14.4,5.57,5.57,0,0,0,2-.51,12.77,12.77,0,0,0,2.55-1.89L62.8,57.42,29.29,43.1c-4.5-1.92-6.75-2.89-7.7-4.41a5.71,5.71,0,0,1-.67-4.47c.46-1.74,2.32-3.32,6.06-6.49l2.24-1.93a12.23,12.23,0,0,1,2.92-2.13,5.62,5.62,0,0,1,2.25-.45,12.1,12.1,0,0,1,3.51.85L79.53,37.36a12.42,12.42,0,0,0,3.45.83,5.65,5.65,0,0,0,2.4-.5,12.85,12.85,0,0,0,2.83-2.14Z" transform="translate(-11.09)"/></svg>