<svg id="Livello_3" data-name="Livello 3" xmlns="http://www.w3.org/2000/svg" viewBox="0 0 592.52 38.41"><defs><style>.cls-1{fill:#e3305e;}.cls-2{fill:#e4325c;}.cls-3{fill:#e53459;}.cls-4{fill:#e63557;}.cls-5{fill:#e73754;}.cls-6{fill:#e83952;}.cls-7{fill:#e93b4f;}.cls-8{fill:#eb3e4a;}.cls-9{fill:#ec4048;}.cls-10{fill:#ed4245;}.cls-11{fill:#ee4343;}.cls-12{fill:#ef4540;}</style></defs><path id="path326888" class="cls-1" d="M10.59,17.45,0,46.5H11.61L16.9,32H37.26l3.19-8.75H20.09l1-2.91-4.76-2.86h32L51.46,8.7h-29C17.66,8.7,12.31,12.59,10.59,17.45Z" transform="translate(0 -8.4)"/><path id="path326890" class="cls-2" d="M69,8.7H57.31L43.59,46.5H78.47l3.19-8.75H58.42Z" transform="translate(0 -8.4)"/><path id="path326892" class="cls-3" d="M109.42,8.7H97.72L84,46.5H95.62Z" transform="translate(0 -8.4)"/><path id="path326894" class="cls-4" d="M113.84,17.45h43.58l3.19-8.75H125.72C120.92,8.7,115.57,12.59,113.84,17.45Zm-7.42,20.3c-1.79,4.86.7,8.75,5.5,8.75h26.19C149.17,47,152.2,31,155.29,23.22H135L131.77,32h8.75l-2.1,5.78H118.06l6.36-17.44C113.11,19,109.13,28.62,106.42,37.75Z" transform="translate(0 -8.4)"/><path id="path326896" class="cls-5" d="M180.2,8.7H168.54L154.82,46.5h11.6l4.23-11.61L165.89,32h26.19L186.79,46.5h11.63L212.19,8.7H200.56l-5.29,14.52H174.91Z" transform="translate(0 -8.4)"/><path id="path326898" class="cls-6" d="M214.57,17.45h14.52L218.51,46.5h11.66l9.51-26.19-4.76-2.86h20.36l3.19-8.75H217.75Z" transform="translate(0 -8.4)"/><path id="path326900" class="cls-7" d="M303.86,8.7H292.2L278.48,46.5h11.61l6.7-18.42,2.26,9.67h11.67l9.34-9.67-6.7,18.42H325L338.74,8.7H327.13L308.42,28.08Z" transform="translate(0 -8.4)"/><path id="path326904" class="cls-8" d="M396.89,8.7H385.23L371.51,46.5h11.61l8.75-24,11.61,24h11.61L428.86,8.7H417.25l-8.75,24Z" transform="translate(0 -8.4)"/><path id="path326906" class="cls-9" d="M448.91,8.7H437.25L423.53,46.5h11.61Z" transform="translate(0 -8.4)"/><path id="path326908" class="cls-10" d="M451.32,17.45h14.52L455.26,46.5h11.66l9.5-26.19-4.75-2.86H492l3.19-8.75H454.5Z" transform="translate(0 -8.4)"/><path id="path326910" class="cls-11" d="M495.18,46.5c9.78-1.22,34.09,4.78,38.07-8.75.77-6,15.63-28.87,1.89-29-9.78,1.22-34.09-4.78-38.07,8.75C496.27,23.5,481.35,46.3,495.18,46.5Zm6.1-8.75,6.32-17.44-4.76-2.86H529l-7.39,20.3Z" transform="translate(0 -8.4)"/><path id="path326912" class="cls-12" d="M586.69,8.7H551.75L538,46.5h11.61l3.18-8.75-4.75-2.86h14.53L570,46.5h11.61l-7.4-11.61a14.2,14.2,0,0,0,14.85-8.75c2-5.38,7.77-17.41-2.38-17.44Zm-32.27,8.75h26.19l-3.19,8.69H557.05l2.1-5.83Z" transform="translate(0 -8.4)"/><path class="cls-8" d="M360.48,44.31a17.92,17.92,0,0,1-4,.27l-.1,1.9,1,0a19.28,19.28,0,0,0,3.49-.32Zm-10.07-1.19-.78,1.74a18.73,18.73,0,0,0,4.27,1.33l.35-1.87A17.12,17.12,0,0,1,350.41,43.12Zm15.88-1.07a16.52,16.52,0,0,1-3.64,1.7l.59,1.81a18.91,18.91,0,0,0,4.05-1.89Zm-21-2.48-1.36,1.33a19.15,19.15,0,0,0,3.5,2.79l1-1.62A16.83,16.83,0,0,1,345.29,39.57Zm25.6-1.72a17.35,17.35,0,0,1-2.78,2.9l1.2,1.47a19,19,0,0,0,3.1-3.23Zm-29.1-3.44-1.75.76A19,19,0,0,0,342.31,39l1.51-1.15A16.77,16.77,0,0,1,341.79,34.41Zm31.88-2.14A17.23,17.23,0,0,1,372.12,36l1.65.93a18.71,18.71,0,0,0,1.73-4.13Zm-33.28-3.93-1.89.07a18.78,18.78,0,0,0,.7,4.42l1.83-.52A17.22,17.22,0,0,1,340.39,28.34Zm35.74-2.45-1.89.17c0,.52.07,1.05.07,1.57a16.63,16.63,0,0,1-.18,2.45l1.89.27a20.49,20.49,0,0,0,.19-2.72C376.21,27.05,376.18,26.46,376.13,25.89Zm-36.65-4.34a18.77,18.77,0,0,0-.92,4.38l1.89.17a16.87,16.87,0,0,1,.83-3.93Zm34.75-2.33-1.7.85a16.9,16.9,0,0,1,1.36,3.78l1.85-.42A18.56,18.56,0,0,0,374.23,19.22Zm-4.18-5.53-1.28,1.41a16.24,16.24,0,0,1,2.63,3L373,17.07A19.22,19.22,0,0,0,370.05,13.69ZM364.16,10l-.69,1.77A17,17,0,0,1,367,13.7l1.09-1.56A18.72,18.72,0,0,0,364.16,10Zm-9.34-1.1a19,19,0,0,0-4.33,1.11l.69,1.77a17.38,17.38,0,0,1,3.89-1Zm2.52-.17h0v1.9h0a17.29,17.29,0,0,1,4,.47l.44-1.85A19.39,19.39,0,0,0,357.34,8.77Z" transform="translate(0 -8.4)"/><path class="cls-8" d="M357.34,15.32a12.25,12.25,0,0,0-8.65,3.55c.45,2-1.94,2.68-2.06,2.68a12.32,12.32,0,1,0,23,6.08h0a12.3,12.3,0,0,0-12.3-12.31ZM364.46,27a19.83,19.83,0,0,0-.65-4.66h3.12A10.75,10.75,0,0,1,368.29,27Zm3.8,1.37A10.9,10.9,0,0,1,366.89,33h-3.11a19.83,19.83,0,0,0,.65-4.66Zm-4.93-7.39a11.08,11.08,0,0,0-1.95-3.45A11,11,0,0,1,366,20.93ZM358,27V22.3h4.31a19.29,19.29,0,0,1,.75,4.65Zm5.06,1.37a17.41,17.41,0,0,1-.75,4.66H358V28.32ZM358,20.93V16.75c1.54.38,2.91,1.95,3.83,4.18Zm0,13.41h3.83c-.92,2.23-2.3,3.81-3.83,4.18V34.34Zm3.39,3.46a11.46,11.46,0,0,0,1.95-3.46H366a11.52,11.52,0,0,1-4.62,3.46ZM352.35,33a19.38,19.38,0,0,1-.75-4.66h5.06V33Zm4.31,1.36v4.18c-1.54-.38-2.91-2-3.83-4.18ZM351.59,27a17.82,17.82,0,0,1,.76-4.66h4.31V27Zm-.23-6h-2.67a10.85,10.85,0,0,1,4.58-3.45A11.44,11.44,0,0,0,351.36,20.93Zm-.45,1.37a19.83,19.83,0,0,0-.65,4.66h-3.83a10.9,10.9,0,0,1,1.37-4.66Zm-.68,6a19.76,19.76,0,0,0,.65,4.66h-3.11a10.76,10.76,0,0,1-1.37-4.66Zm1.13,6a11,11,0,0,0,1.95,3.46,10.88,10.88,0,0,1-4.58-3.46Zm5.3-13.41h-3.83c.92-2.22,2.29-3.8,3.83-4.17Z" transform="translate(0 -8.4)"/><path class="cls-8" d="M347.3,10.76a1.35,1.35,0,0,1,1.78,2l-1.64,1.44a1.75,1.75,0,0,0-.23.24.53.53,0,0,0-.07.2,1.27,1.27,0,0,0,0,.34l.6,4.12a1,1,0,0,1,0,.35.5.5,0,0,1-.08.2,1.36,1.36,0,0,1-.24.24l-.22.19c-.36.3-.53.45-.7.46a.51.51,0,0,1-.41-.13c-.13-.11-.19-.34-.3-.79L345,16.29l-2,1.66a1.1,1.1,0,0,0-.22.21.75.75,0,0,0-.08.18,1.48,1.48,0,0,0,0,.3l0,.9a1.51,1.51,0,0,1,0,.3,1.42,1.42,0,0,1-.08.18,2.09,2.09,0,0,1-.22.2l-.11.1a1.58,1.58,0,0,1-.57.38.51.51,0,0,1-.36-.07c-.13-.07-.22-.23-.4-.55l-.74-1.34-.06-.11-.06-.07-.09-.08-1.21-.95c-.28-.23-.42-.34-.47-.48a.52.52,0,0,1,0-.37c.05-.14.19-.26.47-.49l.11-.1a1.37,1.37,0,0,1,.24-.18l.19-.05a1.54,1.54,0,0,1,.3,0l.89.18a1.53,1.53,0,0,0,.3,0,.65.65,0,0,0,.19,0,1.37,1.37,0,0,0,.24-.18l2-1.66-3.19-1.36c-.43-.19-.64-.28-.73-.42a.54.54,0,0,1-.06-.43c0-.16.22-.31.57-.62l.22-.18a1.05,1.05,0,0,1,.27-.2.54.54,0,0,1,.22,0,1,1,0,0,1,.33.08l4,1.26a1.16,1.16,0,0,0,.32.08.59.59,0,0,0,.23-.05,1.05,1.05,0,0,0,.27-.2Z" transform="translate(0 -8.4)"/></svg>